<svg width="20" height="19" viewBox="0 0 20 19" fill="none" xmlns="http://www.w3.org/2000/svg">
<path d="M9.91048 1.48515C10.3971 0.725054 11.0433 0.31978 11.7204 0.178179C12.3633 0.0447154 13.0225 0.160275 13.5905 0.446734C14.1504 0.729937 14.6305 1.18241 14.9251 1.72929C15.0358 1.93436 15.1221 2.15246 15.1774 2.37707C15.5078 2.37056 15.8447 2.42753 16.1719 2.53821C16.7936 2.74817 17.391 3.15995 17.8532 3.7052C18.3171 4.2537 18.6475 4.94543 18.7321 5.71203C18.7712 6.06522 18.7565 6.43306 18.68 6.80904C19.0202 7.1134 19.3034 7.45683 19.5166 7.82304C19.847 8.38781 20.0195 9.01444 20.0016 9.65084C19.9837 10.2921 19.7721 10.9334 19.3359 11.5242C19.0609 11.8969 18.6979 12.2469 18.2406 12.561C18.2829 13.5408 17.9932 14.4197 17.5244 15.1001C16.9938 15.8683 16.2256 16.3891 15.4281 16.5291C15.2523 17.2111 14.7998 17.8116 14.2155 18.2299C13.4766 18.7589 12.513 19.0079 11.6325 18.767C10.9831 18.5896 10.3923 18.16 9.98698 17.4031C9.49382 18.2348 8.81673 18.6743 8.1071 18.8224C7.25586 18.9998 6.37533 18.7378 5.71127 18.2202C5.18067 17.8068 4.7819 17.2257 4.63867 16.5665C4.36035 16.5551 4.07878 16.4998 3.80371 16.407C3.19662 16.2019 2.61231 15.8048 2.15495 15.2758C1.69597 14.7469 1.36231 14.0812 1.25814 13.3406C1.20443 12.9549 1.21257 12.5512 1.2972 12.1362C0.999351 11.866 0.743817 11.5616 0.540367 11.2312C0.185549 10.6665 -0.00813572 10.0284 2.30336e-06 9.37252C0.00814032 8.71171 0.218101 8.04114 0.67383 7.41939C0.93913 7.05806 1.28906 6.71301 1.73177 6.39725C1.72689 6.27681 1.72689 6.15637 1.73015 6.03755C1.76595 5.07238 2.12077 4.2244 2.63998 3.59126C3.17709 2.93534 3.89649 2.50565 4.63542 2.40149H4.63867C4.66472 2.29244 4.69564 2.18664 4.7347 2.08248C4.97233 1.43632 5.46224 0.887814 6.06283 0.537879C6.66667 0.186317 7.39258 0.0316946 8.09896 0.178179C8.77767 0.318153 9.42383 0.725054 9.91048 1.48515ZM15.14 3.68567C15.0326 4.04048 14.8405 4.39693 14.5475 4.74361C14.3245 5.00891 13.929 5.04309 13.6637 4.82011C13.3984 4.59712 13.3643 4.20162 13.5872 3.93632C14.0592 3.37479 14.0641 2.7856 13.8151 2.32499C13.6426 2.00598 13.3577 1.73905 13.0225 1.56978C12.6953 1.40539 12.3258 1.33541 11.9743 1.40865C11.5055 1.5063 11.0514 1.86926 10.7373 2.60656C10.7422 2.63912 10.7454 2.6733 10.7454 2.70748V15.6779C10.7552 15.7088 10.7633 15.743 10.7699 15.7755C10.9505 16.8741 11.4258 17.4031 11.9596 17.5496C12.4528 17.6847 13.0208 17.5268 13.4733 17.2013C13.9176 16.8823 14.235 16.4168 14.2383 15.9269C14.2432 15.3686 13.833 14.7371 12.736 14.1772C12.4251 14.0193 12.3031 13.6385 12.4609 13.3276C12.6188 13.0167 12.9997 12.8947 13.3105 13.0525C14.5215 13.671 15.1595 14.4295 15.3939 15.1961C15.7829 15.0691 16.1605 14.7729 16.4469 14.3595C16.8066 13.8403 17.0101 13.142 16.9124 12.3575C16.8555 12.089 16.9727 11.8025 17.2217 11.6577C17.6969 11.3794 18.0469 11.0717 18.2845 10.7478C18.5547 10.3833 18.6849 9.99589 18.6963 9.61503C18.7077 9.23091 18.597 8.84354 18.3854 8.48222C18.1917 8.15181 17.9183 7.84745 17.5749 7.59029C17.3356 7.43078 17.2217 7.12317 17.3193 6.83834C17.4349 6.49654 17.4658 6.16451 17.4316 5.85201C17.3779 5.36047 17.1598 4.91288 16.8555 4.54992C16.5479 4.18534 16.154 3.9119 15.752 3.77681C15.5436 3.7052 15.3353 3.67265 15.14 3.68567ZM4.69564 15.2644C4.94629 14.4767 5.6071 13.6905 6.85384 13.0542C7.16472 12.8963 7.54395 13.0183 7.70345 13.3292C7.86133 13.6401 7.73926 14.0193 7.42839 14.1788C6.27279 14.7697 5.83822 15.4467 5.83822 16.0376C5.83822 16.4982 6.10026 16.9295 6.48275 17.2273C6.87012 17.5284 7.37142 17.6847 7.84343 17.587C8.43262 17.465 9.00065 16.9197 9.29525 15.7332V3.2511C9.00065 2.07271 8.43262 1.53072 7.84505 1.40865C7.45768 1.32727 7.0459 1.42004 6.69434 1.62512C6.33952 1.83182 6.05306 2.14921 5.91797 2.51542C5.73731 3.0037 5.84473 3.60429 6.45508 4.16906C6.70899 4.40507 6.72526 4.80057 6.48926 5.05448C6.25326 5.30839 5.85775 5.32466 5.60384 5.08866C5.12858 4.64921 4.83561 4.18209 4.68913 3.71659C4.31478 3.80611 3.94531 4.0535 3.64746 4.41646C3.29753 4.84289 3.05827 5.41906 3.03386 6.0815C3.02735 6.25728 3.03711 6.44283 3.06315 6.63326H3.06153C3.09571 6.88065 2.98503 7.13619 2.75879 7.27616C2.30143 7.55774 1.96289 7.86698 1.72689 8.18925C1.44043 8.57987 1.3086 8.99003 1.30371 9.38554C1.29883 9.78755 1.42253 10.1863 1.64388 10.546C1.83106 10.8504 2.08822 11.1271 2.40072 11.3598C2.63509 11.521 2.74577 11.8237 2.64974 12.1069C2.52604 12.4731 2.49837 12.8295 2.54558 13.16C2.61231 13.6368 2.83366 14.0714 3.1364 14.4213C3.44076 14.7729 3.82487 15.035 4.21875 15.1684C4.37826 15.227 4.53939 15.2579 4.69564 15.2644ZM4.83887 6.39563C5.08627 6.15311 5.4834 6.15637 5.72754 6.40377C5.97005 6.65116 5.9668 7.0483 5.7194 7.29244C5.18067 7.82304 4.89909 8.50663 4.86979 9.2065C4.8405 9.92753 5.07487 10.6681 5.56641 11.2784C5.78451 11.5486 5.74056 11.9441 5.47038 12.1622C5.2002 12.3803 4.80469 12.3364 4.58659 12.0662C3.89811 11.2133 3.57097 10.1749 3.61328 9.15767C3.65723 8.1453 4.0625 7.15897 4.83887 6.39563ZM13.7549 6.99947C13.4733 6.79602 13.4115 6.40214 13.6149 6.12056C13.8184 5.83899 14.2122 5.77551 14.4938 5.98059C14.6191 6.07173 14.738 6.16776 14.8486 6.26867C15.6673 7.00761 16.1149 7.98254 16.1963 8.99166C16.2777 9.991 15.9993 11.0229 15.3695 11.8888C15.2767 12.0157 15.1774 12.1394 15.07 12.2583C14.8372 12.517 14.4401 12.5382 14.1813 12.3055C13.9225 12.0727 13.9014 11.6756 14.1341 11.4168C14.2122 11.3305 14.2839 11.241 14.3506 11.1499C14.7998 10.5314 14.9984 9.79895 14.9414 9.08931C14.8844 8.39107 14.5752 7.71561 14.0072 7.20455C13.9274 7.13293 13.8444 7.06457 13.7549 6.99947Z" fill="#FECD6D"/>
</svg>
