<svg width="14" height="21" viewBox="0 0 14 21" fill="none" xmlns="http://www.w3.org/2000/svg">
<path d="M5.20559 11.0775L0.33504 10.6325C0.131697 10.6141 -0.0175827 10.439 0.00137985 10.2421C0.00581789 10.1983 0.0179216 10.1569 0.0368842 10.1194L4.46645 0.710621C4.52818 0.578934 4.66253 0.501563 4.80294 0.501172L10.8883 0.5C11.0933 0.5 11.2595 0.660994 11.2595 0.859501C11.2595 0.939998 11.2324 1.01385 11.1865 1.07403L8.06933 5.97028L13.6697 6.56737C13.8731 6.58886 14.0199 6.76626 13.9973 6.96321C13.9888 7.04107 13.9539 7.11402 13.8981 7.1707L2.53873 20.371C2.40841 20.5231 2.17521 20.5438 2.01827 20.4172C1.89562 20.3187 1.85567 20.1593 1.90651 20.0217L5.20559 11.0775ZM0.922072 9.96661L5.7208 10.405C5.76034 10.4054 5.80069 10.4121 5.84023 10.4258C6.03308 10.4926 6.13354 10.6981 6.06495 10.8853L3.3057 18.361L12.904 7.20744L7.40686 6.62168C7.35234 6.61534 7.29989 6.5976 7.25314 6.56971C7.07965 6.46577 7.02559 6.24499 7.13291 6.07696L10.225 1.219H5.04017L0.922072 9.96661Z" fill="#ED9096" stroke="#ED9096" stroke-width="0.5"/>
</svg>
