<svg width="20" height="21" viewBox="0 0 20 21" fill="none" xmlns="http://www.w3.org/2000/svg">
<path d="M14.5659 1.32683H5.43387C3.40082 1.32683 1.73772 2.99009 1.73772 5.02315V11.5465C1.73772 13.5792 3.40114 15.2428 5.43387 15.2428H8.30548C7.89467 16.8681 7.39711 18.3286 5.87708 19.6766C8.78351 18.9333 11.0272 17.4305 12.6738 15.2428H13.1704C15.203 15.2428 18.2624 13.5795 18.2624 11.5465V5.02315C18.2621 2.99009 16.599 1.32683 14.5659 1.32683ZM14.1156 7.18446C13.3749 7.18446 12.7744 7.78522 12.7744 8.52594C12.7744 9.26667 13.3749 9.86743 14.1156 9.86743C14.8566 9.86743 15.4571 9.26667 15.4571 8.52594C15.4571 7.78522 14.8566 7.18446 14.1156 7.18446ZM5.88424 7.18446C5.14334 7.18446 4.54275 7.78522 4.54275 8.52594C4.54275 9.26667 5.14334 9.86743 5.88424 9.86743C6.62497 9.86743 7.22572 9.26667 7.22572 8.52594C7.22572 7.78522 6.62497 7.18446 5.88424 7.18446ZM9.99999 7.18446C9.25926 7.18446 8.65851 7.78522 8.65851 8.52594C8.65851 9.26667 9.25926 9.86743 9.99999 9.86743C10.7409 9.86743 11.3413 9.26667 11.3413 8.52594C11.3413 7.78522 10.7409 7.18446 9.99999 7.18446ZM5.43387 0.5H14.5661H14.5671V0.503255C15.8135 0.503581 16.9441 1.01091 17.761 1.82797L17.7593 1.8296C18.5775 2.64878 19.0855 3.779 19.0858 5.02266H19.0891V5.02315H19.0858V11.5465H19.0891V11.5471H19.0858C19.0852 12.8769 18.1614 14.0356 16.9309 14.8448C15.7849 15.5983 14.3378 16.0662 13.1704 16.0664V16.0698H13.1701V16.0664H13.0764C12.2521 17.0932 11.2956 17.9697 10.1997 18.6893C8.98827 19.4849 7.61765 20.0843 6.0802 20.4775L6.07955 20.4749C5.79016 20.5482 5.47131 20.4611 5.25988 20.2223C4.95845 19.8817 4.99035 19.361 5.33101 19.0596C6.00126 18.4653 6.44577 17.8468 6.76754 17.1985C6.94675 16.8374 7.09079 16.4606 7.21595 16.0693H5.43371H5.43257V16.0659C4.18647 16.0656 3.05593 15.5582 2.23886 14.7412C1.42164 13.9243 0.914307 12.7934 0.914144 11.5468H0.910889V11.5463H0.914144V5.02315H0.910889V5.02201H0.914144C0.914307 3.80113 1.40292 2.69077 2.19313 1.87762C2.20761 1.86069 2.22259 1.84409 2.23854 1.82814C3.05576 1.01091 4.18647 0.503255 5.43322 0.503092V0.5H5.43387Z" fill="#44AD92" stroke="#44AD92" stroke-width="0.5"/>
</svg>
