<svg width="20" height="15" viewBox="0 0 20 15" fill="none" xmlns="http://www.w3.org/2000/svg">
<path d="M15.5811 2.44145C17.2949 3.59542 18.7712 5.2686 19.891 7.30147L20 7.50004L19.891 7.69698C18.7712 9.72986 17.2933 11.403 15.5811 12.557C13.9095 13.6833 12.0117 14.3181 10 14.3181C7.98828 14.3181 6.0905 13.6833 4.42057 12.5586C2.70508 11.403 1.22884 9.72986 0.109049 7.69698L0 7.50004L0.109049 7.30147C1.22884 5.2686 2.70508 3.59542 4.41895 2.44145C6.0905 1.31677 7.98828 0.682007 10 0.682007C12.0117 0.682007 13.9079 1.31677 15.5811 2.44145ZM9.89421 4.29041L10.5583 4.35388C10.3223 4.7087 10.1823 5.13839 10.1823 5.60225C10.1823 6.8197 11.1361 7.80603 12.3145 7.80603C12.6921 7.80603 13.0469 7.70512 13.3545 7.52608C13.3594 7.60258 13.3626 7.67908 13.3626 7.7572C13.3626 9.67289 11.8099 11.2256 9.89421 11.2256C7.97852 11.2256 6.42578 9.67289 6.42578 7.7572C6.42578 5.84314 7.97852 4.29041 9.89421 4.29041ZM17.7409 7.50004C16.8457 5.92778 15.6885 4.63546 14.3571 3.73865C13.0469 2.85649 11.5658 2.35844 10 2.35844C8.43587 2.35844 6.95475 2.85649 5.64453 3.73865C4.31315 4.63546 3.15592 5.92778 2.25911 7.50004C3.1543 9.07231 4.31315 10.3646 5.64453 11.2598C6.95475 12.142 8.43587 12.64 10 12.64C11.5658 12.64 13.0452 12.142 14.3571 11.2598C15.6885 10.3646 16.8457 9.07231 17.7409 7.50004Z" fill="#4E58BA"/>
</svg>
